<svg width="220" height="334" viewBox="0 0 220 334" fill="none" xmlns="http://www.w3.org/2000/svg">
<path d="M19.5 2.20001C19.3 3.50001 19 5.2 18.8 6C18.1 10.9 23.8 20.4 30.2 25.1C35.6 29 36.5 28.8 33.4 24.2C32 22.2 28.6 15.9 25.9 10.2C23.2 4.6 20.7 5.72205e-06 20.5 5.72205e-06C20.2 5.72205e-06 19.8 1.00001 19.5 2.20001Z" fill="#793EA5"/>
<path d="M195.2 7.39999C193.4 10.9 192 14.1 192 14.5C192 14.8 191.1 16.4 190 18C188.9 19.7 187.1 22.4 185.9 24.1C184.8 25.8 184.1 27.4 184.4 27.7C186.1 29.4 198.2 16.8 200 11.4C201.2 7.89999 200.6 0.999994 199.1 0.999994C198.7 0.999994 196.9 3.89999 195.2 7.39999Z" fill="#793EA5"/>
<path d="M17.6 21.9C17.2 22.5 15.5 30.3 13.9 39.3C12.3 48.2 10.7 56.7 10.4 58.2C10 59.8 10.2 61 10.8 61C11.7 61 13.4 56.1 17.8 41C19.6 34.9 19.8 34.7 20.4 37.5C21.5 41.9 23.2 46.1 23.7 45.6C24.3 45.1 20.1 24 19 22.1C18.5 21.1 18.1 21.1 17.6 21.9Z" fill="#793EA5"/>
<path d="M200.6 21.8C199.8 23.2 196 41.7 196 44.4C196.1 47.4 197.6 44.6 198.4 39.7C199.6 33.3 200.4 34.8 205 51.7C207.5 60.8 210.9 65.8 209.6 58.5C209.2 56.3 208.5 53.4 208 52C207.6 50.6 206.2 43.6 205 36.5C202.7 23.1 201.8 19.9 200.6 21.8Z" fill="#793EA5"/>
<path d="M63.4 38.1C56.7 47.2 55.4 49.3 53.5 54.5C52.5 57.2 51.3 60 50.9 60.5C49.3 62.6 47.9 75.7 48.5 81.8C50.3 98.6 61.3 117.6 74.7 126.6C77.9 128.7 84 132.9 88.3 135.9L96 141.4V157C96 172.4 96 172.7 98.5 175C99.9 176.3 101.3 177.1 101.6 176.7C101.9 176.4 101.9 167.8 101.5 157.7L100.8 139.4L95.6 135.9C92.8 134 89.9 131.9 89.2 131.2C88.5 130.6 87.5 130 87.1 130C86.7 130 85.5 129.2 84.4 128.2C83.4 127.2 80.4 124.9 77.7 123.2C67.6 116.2 57.4 100.5 54.9 88.1C52.8 77.4 54.4 62.9 58.6 53.3C59.4 51.6 60 49.9 60 49.4C60 49 61.8 45.6 64 41.7C69.1 33 68.7 31 63.4 38.1Z" fill="#793EA5"/>
<path d="M151 33.6C151 34 152.6 36.8 154.4 39.9C162.9 53.9 166.6 69.5 164.9 84.3C162.8 103 153.9 115 129.5 132C127.9 133.1 124.6 135.4 122.3 137L118 140V158.5V177L120.5 175.4C123 173.8 123 173.6 123.1 159.1C123.1 151.1 123.4 143.7 123.8 142.8C124.5 141.1 135.7 132.4 140.8 129.5C151.9 123.2 161.1 112 167.2 97.4C170.3 89.9 170.4 88.8 170.4 77C170.4 65.2 170.3 64.1 167.2 56.7C164 49 162.9 47.1 156.1 37.7C152.9 33.5 151 31.9 151 33.6Z" fill="#793EA5"/>
<path d="M33.6 63.2C31.3 72.1 35 95.7 40.6 107C44.2 114.5 49 122.1 51.6 124.6C52.7 125.7 53.9 127.1 54.1 127.6C54.6 128.9 64.7 136.4 75 143.3C79.7 146.4 84.5 149.7 85.8 150.5C87.8 152 88 152.9 88 161V169.8L83.8 173.4C79.8 176.6 79.6 177 81.1 178.5C82.6 180.1 83.1 179.9 87.6 176.8L92.5 173.3V161.5V149.6L80.2 141.4C68.6 133.7 55 123.2 55 121.9C55 121.6 54.1 120.4 53 119.2C45.1 110.8 39 93.2 38 76C37.3 64.8 36.6 61 35 61C34.6 61 34 62 33.6 63.2Z" fill="#793EA5"/>
<path d="M182.6 64.2C182.4 66 181.7 72.9 181.1 79.5C179.5 97.4 174.2 110.8 164 122.4C160.1 126.8 150.1 134.4 137.5 142.5C132.6 145.7 128.2 148.8 127.8 149.4C127.4 150 127 155.5 127 161.6C127 173.7 127.1 173.9 134.4 178.4C137.2 180.2 137.4 180.2 138.6 178.5C139.8 176.9 139.4 176.2 135.5 172.8C130.6 168.5 130.3 167.3 131.6 156.3L132.3 151.1L145.5 142.5C163.4 131 169 125.2 177.9 109.6C183.2 100.3 187.5 79 186.4 67.7C185.7 60.4 183.5 58.4 182.6 64.2Z" fill="#793EA5"/>
<path d="M17.6 80.8C14.3 86 12 110.6 13.9 120.5C15.9 131.2 24.1 144.9 30.3 148.1C31.7 148.8 31 147.6 28.4 144.9C22.9 138.9 20.6 135.5 18.3 129C15 120.2 14.3 109 16.9 109C17.3 109 19.4 111.8 21.7 115.2C25.6 121.2 33 129.9 33 128.7C33 128.3 31.2 124.6 29.1 120.3C23.7 109.5 21.1 101.2 19.7 89.5C18.9 83.3 18.1 80 17.6 80.8Z" fill="#793EA5"/>
<path d="M200 85.9C200 96 195.2 112.6 189.4 122.6C188.1 124.8 187 127.1 187 127.5C187 129.2 193.3 122.3 197.6 115.8C200.1 112.1 202.6 108.7 203.2 108.4C204 107.9 204.1 110.3 203.8 116.6C203.1 127.5 199.6 135.8 192.2 143.7C189.6 146.6 187.7 149 188.2 149C189.6 149 198.1 139.4 200.6 135C204.8 127.7 206.2 120.7 206.2 108.5C206.1 102.3 205.4 93.9 204.5 89.9C203.7 85.8 203 82.2 203 81.7C203 81.3 202.3 81 201.5 81C200.4 81 200 82.2 200 85.9Z" fill="#793EA5"/>
<path d="M10.6 84.2C9.7 85.4 9 87 9 87.6C9 88.2 8.2 89 7.2 89.2C5.7 89.6 5 91.5 4 97.6C1.8 110.2 2.3 113.1 9 127.5C9.6 128.8 9.8 125.7 9.4 118.5C8.9 108.1 9.8 95.7 11.8 86.2C12.9 81.4 12.7 81.1 10.6 84.2Z" fill="#793EA5"/>
<path d="M207.4 85.2C209.3 91.8 210.1 101.7 209.8 114.6C209.5 128.5 210.1 132.5 211.5 125.7C211.9 124 213.3 120 214.7 117C216.9 112.2 217.1 110.7 216.5 104.5C215.6 94.7 214 89 212.3 89C211.5 89 210.4 87.6 209.9 86C208.6 82.5 206.4 81.8 207.4 85.2Z" fill="#793EA5"/>
<path d="M215.6 123C214.6 126 213.4 128.9 213 129.5C212.6 130 212 133.1 211.8 136.3C211.3 141.9 211.4 142.1 213.5 141.6C216.4 140.9 217 142.8 217 153.5C217.1 160.6 217.2 161.3 218.5 159.7C219.6 158.2 219.7 154.8 219.3 143.2C219 135.1 218.5 126 218.1 123L217.4 117.5L215.6 123Z" fill="#793EA5"/>
<path d="M0.500001 137.9C0.100001 148.3 0.100001 157.8 0.500001 158.9C1.9 163.3 2.7 160.7 2.8 151.9C2.8 142.2 3.8 139.7 6.6 142.1C8.1 143.4 8.2 143 7.8 137.5C7.4 131.5 3.4 119 2 119C1.6 119 0.900001 127.5 0.500001 137.9Z" fill="#793EA5"/>
<path d="M14.5 137C14.9 138.4 17.4 144 20.1 149.5L25.1 159.6L32.3 160.7C36.3 161.3 40.9 162.6 42.5 163.4C44.2 164.3 46 165 46.7 165C47.3 165 51.6 166.9 56.2 169.2C66.7 174.6 66 174.3 66 173.2C66 171.4 50.5 163.1 34 155.9C27 152.8 22.5 148.8 19.5 143.1C18.2 140.6 16.4 137.6 15.5 136.5C13.9 134.5 13.9 134.6 14.5 137Z" fill="#793EA5"/>
<path d="M201.3 140.7C196.8 149 193.3 152.4 186.5 155.5C183.2 157 177.4 159.6 173.5 161.3C166.2 164.6 153.7 172.1 152.6 173.9C152.2 174.4 155.5 173.1 159.7 170.9C170 165.5 182.3 161.1 188.8 160.3C193.9 159.7 194.4 159.4 197.1 155.1C198.7 152.6 200 150 200 149.3C200 148.7 201.2 145.9 202.6 143.1C206.2 135.8 205.1 133.7 201.3 140.7Z" fill="#793EA5"/>
<path d="M13.6 146.7C14 148.2 14.9 152 15.6 155C16.4 158 17 164 17.1 168.5C17.1 173.6 17.7 178 18.8 180.6C20.6 185.1 28.1 194 30.1 194C30.7 194 29.6 192.2 27.7 190.1C20.8 182.5 19.1 176.5 21 166.5L22.2 160.1L18.4 152.5C14.3 144.3 12.5 142.1 13.6 146.7Z" fill="#793EA5"/>
<path d="M201.9 150.7C198.6 157.3 198.5 157.7 198.8 168.2C199.1 180.3 198.4 182.9 192.4 189.9C188 195 189.3 195.3 194.2 190.2C200.3 183.9 202.3 178.7 202.7 168.5C202.9 163.5 203.8 156.2 204.7 152.2C205.5 148.2 206 144.7 205.8 144.4C205.5 144.2 203.8 147 201.9 150.7Z" fill="#793EA5"/>
<path d="M28.7 171.8C25.7 173.7 25.3 175.6 27.4 178.6C28.2 179.7 30 182.7 31.3 185.1C36.4 194.6 37.6 196 40.5 197C43.1 197.8 60.4 200 64.4 200C65.7 200 71.3 208.8 76.7 219.2C78.4 222.4 78.8 222.5 83.6 220.5C93.7 216.3 122.2 216 133.8 220C137.2 221.2 140.4 221.9 140.9 221.5C141.8 221 149.5 208.1 152.4 202.3C153.3 200.5 154.7 200 160.5 199.5C164.3 199.1 170.4 198.4 174 197.9C181.2 196.8 183.2 195.2 187.2 187C188.4 184.5 190.4 181 191.7 179.1C194.7 174.7 194.6 174.3 190.8 172C187.5 170 185.7 170.1 187.8 172.2C188.5 172.9 189 174.2 189 175.2C189 178 184.6 186.1 180.8 190.1L177.5 193.6L163.5 194.9C155.8 195.6 149.2 196.4 148.9 196.6C148.6 196.8 146.5 199.7 144.4 203.1C142.3 206.4 139.3 210.6 137.9 212.3L135.3 215.3L127.9 213.5C119.6 211.3 98 210.9 94.5 212.7C93.4 213.3 90.4 214.1 87.9 214.5L83.3 215.2L77 205.7L70.8 196.2L65.6 195.6C62.8 195.3 56.4 194.8 51.5 194.4C41.7 193.7 40.9 193.4 36.7 187.7C32.1 181.5 29.7 175.4 31 172.9C32.6 170.1 32 169.8 28.7 171.8Z" fill="#793EA5"/>
<path d="M105.9 181.4C100.1 183.5 90 188.3 90.5 188.8C90.7 189.1 95 187.8 100.1 186L109.2 182.7L119.2 186C124.6 187.8 129.3 189.1 129.5 188.8C129.9 188.4 111.4 180 110.2 180C109.8 180.1 107.9 180.7 105.9 181.4Z" fill="#793EA5"/>
<path d="M6 192.4C6 195.1 9 209.6 10.9 216C12 219.6 14.1 227 15.6 232.5C17.1 238 18.6 242.8 18.9 243.3C20.1 244.6 25.1 238.4 26 234.6C26.7 231.2 26 229.3 16.9 211C11.4 200 6.7 191 6.5 191C6.2 191 6 191.6 6 192.4Z" fill="#793EA5"/>
<path d="M202.6 210.9C193.6 228.9 192.8 231 193.4 234.5C193.9 236.7 195.4 239.6 197.2 241.4L200.3 244.4L203.1 235.5C204.7 230.5 206 226 206 225.4C206 224.8 206.9 221.4 208.1 217.9C209.6 213.1 214 193.4 214 191.3C214 191.1 213.7 191 213.3 191C212.8 191.1 208 200 202.6 210.9Z" fill="#793EA5"/>
<path d="M69.8 222.7C70.8 224.3 72.1 226.4 72.6 227.5C73.2 228.6 74.5 229.7 75.4 229.8C76.7 230.1 76.4 229 73.8 225.1C72 222.3 69.9 220 69.2 220C68.3 220 68.5 220.8 69.8 222.7Z" fill="#793EA5"/>
<path d="M146.1 224.6C142.6 229.7 142.5 230 144.4 230C145.1 230 146.3 228.7 147 227C147.7 225.4 148.8 223.5 149.6 222.9C151.2 221.6 151.4 220 150.1 220C149.6 220 147.8 222 146.1 224.6Z" fill="#793EA5"/>
<path d="M32 233.5C31 237.4 29.4 239.7 24.8 244.1C19.3 249.5 19 249.9 20 252.6C20.9 254.9 21.3 255.1 22 254C22.6 253.2 23 251.7 23 250.8C23 249.9 25.2 246.9 27.9 244.2C32.8 239.3 34.8 234.7 33.8 230.3C33.5 229.2 32.8 230.4 32 233.5Z" fill="#793EA5"/>
<path d="M43.4 230.5C43 231.4 43.1 232.4 43.4 232.8C44.3 233.6 47.6 231.6 47.3 230.4C46.9 228.8 44 228.8 43.4 230.5Z" fill="#793EA5"/>
<path d="M84.7 231.6C88.7 234 91 238.1 91 242.7C91 244.6 93.2 249 94.2 249C95.2 249 95.2 244.1 94.3 238.6C93.8 235.4 92.9 234.3 89.2 231.9C86.7 230.3 83.7 229 82.6 229C81 229.1 81.6 229.7 84.7 231.6Z" fill="#793EA5"/>
<path d="M132.4 230.7C130.7 231.7 128.6 233 127.6 233.6C125.5 234.9 123.4 246.8 125 248.4C126.6 250 127.6 247.8 129 240.3C130.2 234.3 130.5 233.8 134.1 231.9C136.3 230.8 138 229.7 138 229.5C138 228.5 135.3 229.1 132.4 230.7Z" fill="#793EA5"/>
<path d="M172.7 229.7C171.9 230.4 173.8 233 175.1 233C175.6 233 176 232.1 176 231C176 229.1 174 228.3 172.7 229.7Z" fill="#793EA5"/>
<path d="M185 231.4C185 235 187.7 240 192.1 244.5C195.5 248 197 250.4 197 252.3C197 256 198.7 255.7 199.5 251.8C200.1 249.2 199.8 248.3 197.9 246.8C192.6 242.8 189.1 238.4 187.9 234.3C186.8 230.2 185 228.4 185 231.4Z" fill="#793EA5"/>
<path d="M49.1 235.6C47.9 237.1 47 238.9 47 239.7C47 240.4 50 246.8 53.6 253.9L60.2 266.7L58 274.1C56.8 278.2 54.9 285.1 53.9 289.5C52.8 293.9 51.3 299.2 50.5 301.2L49 305L53.6 311C56.1 314.3 58.6 317 59.1 317C60 317 60.3 316.1 61.9 306.5C62.5 303.2 63.4 298.5 64 296C64.5 293.5 65.6 287 66.5 281.5C67.3 276 68.5 269.8 69.2 267.8C70.2 264.4 70 263.5 67 257.8C65.2 254.3 61.8 248.6 59.6 245C57.3 241.4 54.9 237.3 54.3 235.7C52.7 232.3 51.7 232.3 49.1 235.6Z" fill="#793EA5"/>
<path d="M165.7 235.2C164.9 236.5 163 239.7 161.4 242.5C159.8 245.2 158.1 248.2 157.5 249.1C154.4 254.1 149.6 263.6 149.9 264.5C150.2 265.6 155.2 293.5 157.7 307.7C158.5 312.8 159.6 317 160 317C160.7 317 162.6 315.1 167.1 309.7C170.1 306.1 170.2 305.8 169.1 301.7C168.4 299.4 166.6 292.5 165 286.5C163.5 280.4 161.7 274.2 161.1 272.7C159.3 268 159.8 266.2 166.7 252.5L173.3 239.3L171.1 236.1C168.4 232.4 167.5 232.3 165.7 235.2Z" fill="#793EA5"/>
<path d="M93.8 294.6C93.3 295 93 298.5 93 302.4C93 310 90.7 316.5 86.8 320.7C85.2 322.4 84.9 323.6 85.4 326.4C86.2 330.7 88.3 332 95.6 332.7L101.1 333.3L99.1 327.9C96.4 320.3 95.8 317 95.1 304.7C94.8 298.7 94.2 294.2 93.8 294.6Z" fill="#793EA5"/>
<path d="M124.7 296C124.4 296.8 124 302.9 123.7 309.5C123.4 319.1 122.9 322.5 121.2 326.4C120 329.1 119 331.6 119 332.1C119 333.4 124.6 333.2 129 331.9C134.5 330.2 137 323.9 133.3 320.9C130.5 318.5 126.8 308.8 126.1 301.5C125.7 297.6 125.1 295.2 124.7 296Z" fill="#793EA5"/>
</svg>
