<?xml version="1.0"?>
<svg xmlns="http://www.w3.org/2000/svg" xmlns:xlink="http://www.w3.org/1999/xlink" xmlns:svgjs="http://svgjs.com/svgjs" version="1.1" width="512" height="512" x="0" y="0" viewBox="0 0 512 512" style="enable-background:new 0 0 512 512" xml:space="preserve" class=""><g><g xmlns="http://www.w3.org/2000/svg"><g><g><g><g><g><g><g><g><circle cx="256" cy="256" fill="#f7f7f7" r="256" data-original="#64e1dc" style=""/></g></g></g></g></g></g></g></g><path d="m512 256c0-9.992-.573-19.85-1.687-29.544l-134.413-134.413-5.669 17.047-32.09-32.09-228.705 66.385 48.054 48.155-48.054 15.808 35.675 35.106-35.675 28.857 38.265 38.366-38.265 25.598 47.706 47.447-47.706 16.517 27.922 28.066-7.874 1.216 79.095 79.095c15.367 2.879 31.218 4.384 47.421 4.384 141.385 0 256-114.615 256-256z" fill="#ffffff" data-original="#00c8c8" style="" class=""/><g><path d="m356.697 428.521h-227.213v-345.042h227.213c14.259 0 25.819 11.559 25.819 25.819v293.406c0 14.258-11.56 25.817-25.819 25.817z" fill="#707789" data-original="#707789" style="" class=""/></g><g><path d="m356.697 83.479h-111.08v345.043h111.08c14.259 0 25.819-11.559 25.819-25.818v-293.407c0-14.259-11.559-25.818-25.819-25.818z" fill="#555a66" data-original="#555a66" style="" class=""/></g><g><path d="m306.506 77h31.636v358h-31.636z" fill="#333940" data-original="#333940" style="" class=""/></g><g><g><path d="m109.436 112.76h48.869v30.624h-48.869z" fill="#555a66" data-original="#555a66" style="" class=""/></g><g><path d="m109.436 176.724h48.869v30.624h-48.869z" fill="#555a66" data-original="#555a66" style="" class=""/></g><g><path d="m109.436 240.688h48.869v30.624h-48.869z" fill="#555a66" data-original="#555a66" style="" class=""/></g><g><path d="m109.436 304.651h48.869v30.624h-48.869z" fill="#555a66" data-original="#555a66" style="" class=""/></g><g><path d="m109.436 368.615h48.869v30.624h-48.869z" fill="#555a66" data-original="#555a66" style="" class=""/></g></g></g></g></svg>
