<?xml version="1.0" standalone="no"?>
<!DOCTYPE svg PUBLIC "-//W3C//DTD SVG 20010904//EN"
 "http://www.w3.org/TR/2001/REC-SVG-20010904/DTD/svg10.dtd">
<svg version="1.0" xmlns="http://www.w3.org/2000/svg"
 width="2096.000000pt" height="2096.000000pt" viewBox="0 0 2096.000000 2096.000000"
 preserveAspectRatio="xMidYMid meet">

<g transform="translate(0.000000,2096.000000) scale(0.100000,-0.100000)"
fill="#000000" stroke="none">
<path d="M10565 14344 c-360 -55 -819 -230 -955 -363 -107 -104 -115 -175
-106 -891 5 -344 3 -660 -4 -885 -16 -492 1 -796 56 -984 21 -73 76 -182 114
-225 72 -82 212 -106 304 -52 91 53 169 212 211 431 19 99 44 346 45 440 0 39
4 75 8 81 6 10 275 124 292 124 11 0 64 -124 124 -292 119 -336 183 -480 273
-616 69 -104 132 -156 210 -172 155 -33 274 40 323 196 75 243 -65 746 -328
1181 l-50 83 73 64 c142 128 282 317 346 468 59 137 74 224 74 428 -1 168 -3
195 -28 294 -102 407 -365 654 -742 696 -110 12 -127 12 -240 -6z m125 -856
c57 -29 88 -84 97 -170 7 -77 -14 -168 -53 -230 -39 -61 -129 -153 -201 -204
-61 -45 -204 -117 -255 -129 l-28 -7 0 139 c0 77 -3 228 -7 335 l-6 196 31 16
c17 9 71 29 119 46 116 39 235 42 303 8z"/>
<path d="M7375 14315 c-170 -82 -303 -335 -380 -720 -60 -301 -89 -551 -101
-871 -22 -565 169 -1095 507 -1408 79 -73 199 -161 266 -194 276 -140 658
-147 926 -16 231 113 390 316 495 634 116 351 149 880 82 1323 -59 385 -184
775 -310 965 -111 167 -207 236 -330 235 -105 0 -182 -50 -231 -150 -21 -43
-24 -61 -24 -168 1 -111 4 -133 48 -295 109 -406 152 -662 163 -985 15 -389
-46 -670 -175 -808 -54 -59 -107 -85 -188 -93 -139 -15 -241 54 -320 216 -85
173 -108 334 -100 694 6 277 18 380 89 756 38 200 43 241 42 370 0 158 -12
222 -64 336 -32 72 -107 157 -162 185 -56 29 -168 26 -233 -6z"/>
<path d="M12405 14264 c-338 -49 -499 -95 -638 -184 -71 -45 -142 -115 -158
-158 -22 -58 -30 -131 -19 -172 34 -125 253 -228 437 -205 l53 6 0 -78 c0 -86
-26 -813 -35 -988 -8 -155 -22 -306 -51 -560 -35 -307 -27 -279 -84 -294 -194
-50 -354 -216 -367 -383 -9 -109 41 -172 168 -215 84 -28 453 -25 644 5 382
60 632 177 701 327 36 76 33 173 -5 241 -51 88 -145 140 -272 151 -37 3 -73 9
-79 13 -9 5 -5 68 14 251 47 445 69 775 86 1274 6 176 13 325 15 331 2 6 21
15 42 19 63 11 198 80 248 126 116 107 146 257 69 348 -32 38 -146 95 -244
123 -63 17 -110 21 -285 23 -115 2 -223 1 -240 -1z"/>
<path d="M3330 9135 c-233 -59 -426 -255 -486 -495 -24 -93 -21 -263 5 -363
62 -235 247 -419 476 -473 105 -24 297 -15 387 18 102 38 172 85 251 168 129
135 187 283 187 480 0 244 -102 440 -297 574 -108 73 -193 99 -343 102 -83 2
-143 -1 -180 -11z m271 -287 c128 -43 215 -177 226 -348 12 -172 -59 -324
-181 -388 -46 -24 -61 -27 -156 -27 -95 0 -110 3 -156 27 -66 35 -127 105
-155 177 -19 46 -23 76 -23 176 0 102 3 129 22 177 40 100 108 170 197 205 39
15 183 16 226 1z"/>
<path d="M16148 9134 c-202 -48 -392 -236 -453 -446 -56 -194 -28 -426 70
-587 74 -123 210 -236 338 -281 85 -31 265 -38 360 -16 151 35 305 142 375
259 18 30 44 88 58 128 22 66 24 86 22 213 l-3 141 -302 3 -303 2 0 -115 0
-115 151 0 152 0 -7 -47 c-17 -127 -172 -229 -315 -208 -174 25 -301 196 -301
405 0 132 51 253 143 335 63 58 128 79 221 73 91 -6 157 -39 221 -110 l47 -53
69 75 c38 41 82 90 96 109 l27 34 -60 56 c-118 111 -259 162 -443 160 -58 0
-132 -7 -163 -15z"/>
<path d="M4580 8470 l0 -660 150 0 150 0 2 408 3 407 260 -407 260 -407 153
-1 152 0 0 660 0 660 -150 0 -150 0 0 -407 c0 -352 -2 -405 -14 -393 -8 8
-127 191 -264 405 l-250 390 -151 3 -151 3 0 -661z"/>
<path d="M6190 8470 l0 -660 380 0 380 0 0 130 0 130 -227 2 -228 3 -3 528 -2
527 -150 0 -150 0 0 -660z"/>
<path d="M7390 8470 l0 -660 150 0 150 0 0 660 0 660 -150 0 -150 0 0 -660z"/>
<path d="M8170 8470 l0 -660 150 0 150 0 2 408 3 407 260 -407 260 -407 153
-1 152 0 0 660 0 660 -150 0 -150 0 0 -407 c0 -351 -2 -405 -14 -393 -11 12
-353 541 -489 758 l-27 42 -150 0 -150 0 0 -660z"/>
<path d="M9780 8470 l0 -660 380 0 380 0 0 130 0 130 -227 2 -228 3 -3 133 -3
132 221 0 220 0 0 130 0 130 -217 2 -218 3 0 130 0 130 228 3 227 2 0 130 0
130 -380 0 -380 0 0 -660z"/>
<path d="M12000 8663 c0 -454 -1 -468 -21 -510 -44 -90 -149 -104 -247 -33
-23 16 -46 30 -50 30 -9 0 -92 -212 -92 -235 0 -22 98 -83 169 -105 41 -13 91
-20 145 -20 182 0 298 66 363 205 l28 60 3 538 3 537 -151 0 -150 0 0 -467z"/>
<path d="M12756 9122 c-9 -15 -6 -786 4 -892 5 -58 16 -127 25 -155 39 -120
134 -212 264 -257 58 -20 85 -23 221 -23 136 0 163 3 221 23 177 61 268 184
290 392 5 47 9 273 9 503 l0 418 -152 -3 -153 -3 -5 -450 c-5 -441 -5 -451
-28 -496 -33 -67 -85 -94 -182 -94 -97 0 -149 27 -182 94 -23 45 -23 52 -26
499 l-3 452 -149 0 c-82 0 -151 -4 -154 -8z"/>
<path d="M14250 8470 l0 -660 225 0 c267 0 340 11 465 73 120 59 231 169 289
287 145 297 60 647 -204 835 -145 104 -238 125 -550 125 l-225 0 0 -660z m512
356 c68 -32 140 -108 176 -184 24 -51 27 -68 27 -172 0 -104 -3 -121 -27 -172
-61 -130 -170 -206 -310 -215 l-78 -6 0 393 0 393 78 -6 c56 -3 95 -13 134
-31z"/>
<path d="M17340 8470 l0 -660 380 0 380 0 0 130 0 130 -227 2 -228 3 -3 132
-3 133 218 2 218 3 3 127 3 128 -218 2 -218 3 0 130 0 130 228 3 227 2 0 130
0 130 -380 0 -380 0 0 -660z"/>
<path d="M3670 7099 c-178 -22 -346 -177 -396 -364 -18 -67 -18 -197 1 -270
63 -242 299 -396 546 -356 241 38 406 238 408 491 2 141 -44 255 -141 356
-112 117 -249 164 -418 143z m187 -234 c94 -47 138 -142 131 -284 -3 -74 -9
-95 -35 -142 -17 -31 -48 -67 -72 -84 -36 -25 -54 -30 -116 -33 -93 -5 -137 9
-190 62 -53 54 -75 116 -75 217 0 179 93 289 245 289 45 0 74 -7 112 -25z"/>
<path d="M8932 7098 c-197 -30 -314 -236 -227 -397 38 -69 77 -100 210 -167
152 -77 175 -102 154 -164 -15 -41 -55 -60 -126 -60 -47 0 -73 7 -128 35 -39
19 -80 42 -92 51 -24 17 -25 16 -112 -128 l-22 -36 33 -25 c187 -140 494 -138
622 4 50 56 71 117 70 204 0 115 -59 178 -261 280 -147 74 -172 98 -159 148
15 63 138 75 248 25 l57 -26 36 66 c50 90 50 110 0 138 -73 42 -214 66 -303
52z"/>
<path d="M10509 7100 c-142 -18 -239 -117 -239 -242 0 -47 23 -111 62 -170 17
-27 29 -50 27 -52 -2 -2 -24 -16 -49 -31 -114 -71 -180 -155 -180 -230 0 -63
30 -135 74 -180 65 -64 136 -88 266 -89 93 0 112 3 162 26 32 15 77 40 101 57
l44 30 49 -50 48 -49 133 0 c73 0 133 3 133 8 0 4 -34 41 -76 82 -41 41 -84
87 -95 101 l-19 27 68 66 67 67 -70 63 -69 64 -54 -49 c-84 -77 -80 -77 -153
-3 -59 60 -62 67 -45 77 114 72 169 149 169 236 -2 164 -153 266 -354 241z
m143 -180 c40 -49 13 -128 -56 -165 -41 -22 -55 -15 -86 49 -25 53 -18 98 19
127 33 27 97 21 123 -11z m-88 -479 c79 -79 78 -88 -1 -115 -58 -20 -84 -20
-128 -2 -41 17 -60 53 -51 92 9 34 68 94 93 94 10 0 50 -31 87 -69z"/>
<path d="M12310 7099 c-251 -27 -461 -256 -460 -499 1 -249 209 -465 475 -495
108 -12 287 26 346 74 l22 18 -48 87 c-37 69 -51 86 -64 80 -82 -36 -130 -46
-201 -42 -89 5 -152 31 -203 82 -143 142 -99 375 86 457 73 32 201 33 271 1
27 -12 54 -22 60 -22 6 0 31 39 55 87 l43 87 -24 18 c-31 23 -131 56 -193 63
-27 3 -61 7 -75 9 -14 1 -54 -1 -90 -5z"/>
<path d="M13362 7099 c-177 -22 -349 -179 -398 -363 -18 -68 -18 -198 1 -271
63 -242 299 -396 546 -356 188 30 343 169 391 350 94 363 -178 685 -540 640z
m185 -234 c94 -47 138 -142 131 -284 -3 -74 -9 -95 -35 -142 -17 -31 -48 -67
-72 -84 -36 -25 -54 -30 -116 -33 -93 -5 -137 9 -190 62 -54 54 -75 116 -75
217 0 179 93 288 246 289 45 0 73 -6 111 -25z"/>
<path d="M17519 7099 c-93 -14 -191 -85 -231 -167 -34 -71 -32 -172 4 -233 39
-67 85 -102 211 -165 137 -69 157 -86 157 -134 0 -56 -35 -83 -115 -88 -56 -4
-73 0 -130 27 -37 17 -80 40 -97 52 -25 18 -32 19 -39 8 -5 -8 -30 -49 -55
-92 -54 -91 -57 -85 61 -143 116 -57 234 -75 349 -53 172 32 266 131 268 287
2 126 -66 204 -260 297 -64 31 -127 66 -139 77 -31 29 -30 72 3 105 23 23 31
25 97 21 51 -2 89 -12 130 -30 l58 -27 42 85 42 86 -23 19 c-31 25 -163 65
-232 71 -30 3 -76 1 -101 -3z"/>
<path d="M19437 7099 c-97 -15 -193 -83 -232 -164 -27 -56 -32 -155 -11 -209
24 -62 105 -135 201 -181 114 -53 163 -86 176 -117 41 -99 -100 -154 -238 -93
-31 14 -72 37 -90 51 -18 14 -37 23 -42 19 -18 -10 -102 -167 -98 -180 8 -19
125 -81 192 -101 80 -24 230 -24 306 -1 132 40 206 128 216 259 11 135 -53
212 -255 310 -177 84 -203 118 -142 180 29 29 33 30 103 26 52 -3 87 -11 127
-31 30 -14 55 -25 56 -24 5 6 84 167 84 172 0 9 -96 53 -150 68 -72 20 -144
26 -203 16z"/>
<path d="M1255 7078 c-3 -7 -4 -224 -3 -483 l3 -470 108 -3 107 -3 0 180 0
179 118 3 c109 4 122 6 184 37 108 53 158 135 161 262 3 99 -18 156 -77 215
-81 80 -112 88 -373 93 -181 3 -224 1 -228 -10z m382 -187 c50 -23 63 -45 63
-108 0 -81 -31 -109 -136 -124 -96 -13 -94 -17 -94 127 l0 124 63 0 c39 0 77
-7 104 -19z"/>
<path d="M2250 6606 l0 -486 110 0 110 0 2 187 3 188 144 -188 144 -187 134 0
c73 0 133 4 133 8 0 5 -70 92 -155 195 -85 103 -155 189 -155 192 0 2 17 13
38 24 58 30 118 101 136 162 46 155 -10 293 -146 355 -62 28 -65 29 -280 32
l-218 4 0 -486z m377 283 c46 -28 64 -117 34 -172 -18 -33 -77 -57 -141 -57
l-50 0 0 126 0 127 68 -5 c37 -3 77 -11 89 -19z"/>
<path d="M4545 7079 c-3 -8 -4 -225 -3 -484 l3 -470 235 0 c226 0 237 1 287
24 62 28 125 92 144 147 18 53 16 162 -5 206 -24 50 -75 96 -130 117 l-48 18
32 23 c19 13 43 46 58 78 21 46 24 65 20 121 -8 111 -50 170 -150 208 -59 22
-435 32 -443 12z m345 -188 c34 -24 47 -79 29 -117 -17 -35 -71 -64 -121 -64
l-38 0 0 98 c0 54 3 102 7 106 12 12 96 -4 123 -23z m16 -382 c59 -15 84 -48
84 -109 0 -76 -53 -110 -172 -110 l-58 0 0 115 0 115 51 0 c27 0 70 -5 95 -11z"/>
<path d="M5540 6605 l0 -485 275 0 275 0 0 95 0 95 -165 0 -165 0 0 390 0 390
-110 0 -110 0 0 -485z"/>
<path d="M6420 6605 l0 -485 275 0 275 0 0 95 0 95 -165 0 -165 0 0 100 0 99
158 3 157 3 0 90 0 90 -157 3 -158 3 0 94 0 95 163 2 162 3 0 95 0 95 -272 3
-273 2 0 -485z"/>
<path d="M7346 7078 c-3 -7 -21 -202 -41 -433 -20 -231 -39 -444 -42 -472 l-6
-53 110 0 110 0 6 58 c4 31 14 157 23 280 10 122 20 222 24 222 3 0 49 -123
101 -272 l95 -273 69 0 69 0 95 273 c52 149 98 272 101 272 4 0 14 -100 24
-222 9 -123 19 -249 23 -280 l6 -58 108 0 c60 0 109 3 109 8 0 25 -82 921 -86
940 -4 22 -7 23 -120 20 l-116 -3 -103 -268 c-57 -148 -105 -271 -108 -273 -3
-3 -28 55 -57 128 -28 73 -76 197 -106 276 l-56 142 -114 0 c-83 0 -116 -3
-118 -12z"/>
<path d="M14237 7084 c-4 -4 -7 -223 -7 -486 l0 -478 110 0 110 0 2 301 3 302
191 -299 191 -299 112 -3 111 -3 0 486 0 485 -110 0 -110 0 -2 -299 -3 -299
-190 296 -190 297 -106 3 c-58 1 -108 -1 -112 -4z"/>
<path d="M15354 7077 c-3 -8 -4 -52 -2 -98 l3 -84 112 -3 113 -3 2 -382 3
-382 110 0 110 0 1 330 c1 182 2 353 3 382 l1 52 108 3 107 3 5 40 c3 22 3 66
2 98 l-4 57 -334 0 c-270 0 -336 -3 -340 -13z"/>
<path d="M16330 6605 l0 -485 275 0 275 0 0 95 0 95 -165 0 -165 0 0 100 0
100 160 0 160 0 0 95 0 95 -160 0 -160 0 0 95 0 95 163 2 162 3 3 98 3 97
-276 0 -275 0 0 -485z"/>
<path d="M18164 7077 c-3 -8 -4 -52 -2 -98 l3 -84 113 -3 112 -3 0 -384 0
-385 110 0 110 0 0 385 0 384 113 3 112 3 3 98 3 97 -336 0 c-270 0 -337 -3
-341 -13z"/>
</g>
</svg>
